# AST/ASF file generated using VICON BodyLanguage
# -----------------------------------------------
:version 1.10
:name VICON
:units
  mass 1.0
  length 0.45
  angle deg
:documentation
   .ast/.asf automatically generated from VICON data using
   VICON BodyBuilder and BodyLanguage model FoxedUp or BRILLIANT.MOD
:root
   order TX TY TZ RX RY RZ
   axis XYZ
   position 0 0 0  
   orientation 0 0 0 
:bonedata
  begin
     id 1 
     name lhipjoint
     direction 0.677091 -0.635792 0.370561 
     length 2.74323 
     axis 0 0 0  XYZ
  end
  begin
     id 2 
     name lfemur
     direction 0.34202 -0.939693 0  
     length 7.44995  
     axis 0 0 20  XYZ
    dof rx ry rz
    limits (-160.0 20.0)
           (-70.0 70.0)
           (-60.0 70.0)
  end
  begin
     id 3 
     name ltibia
     direction 0.34202 -0.939693 0   
     length 7.34467   
     axis 0 0 20   XYZ
    dof rx
    limits (-10.0 170.0)
  end
  begin
     id 4 
     name lfoot
     direction 0.101953 -0.280114 0.954537   
     length 1.72105   
     axis -90 7.62852e-016 20   XYZ
    dof rx rz
    limits (-45.0 90.0)
           (-70.0 20.0)
  end
  begin
     id 5 
     name ltoes
     direction 1.53537e-011 -4.21915e-011 1   
     length 0.865872   
     axis -90 7.62852e-016 20   XYZ
    dof rx
    limits (-90.0 20.0)
  end
  begin
     id 6 
     name rhipjoint
     direction -0.695735 -0.620586 0.361699   
     length 2.81045  
     axis 0 0 0  XYZ 
  end
  begin
     id 7 
     name rfemur
     direction -0.34202 -0.939693 0   
     length 7.29387   
     axis 0 0 -20   XYZ
    dof rx ry rz
    limits (-160.0 20.0)
           (-70.0 70.0)
           (-70.0 60.0)
  end
  begin
     id 8 
     name rtibia
     direction -0.34202 -0.939693 0   
     length 7.44935   
     axis 0 0 -20   XYZ
    dof rx
    limits (-10.0 170.0)
 end
 begin
     id 9 
     name rfoot
     direction -0.104163 -0.286184 0.952496   
     length 1.77731  
     axis -90 -7.62852e-016 -20   XYZ
    dof rx rz
    limits (-45.0 90.0)
           (-20.0 70.0)
  end
  begin
     id 10 
     name rtoes
     direction -1.5355e-011 -4.21888e-011 1   
     length 0.892424   
     axis -90 -7.62852e-016 -20   XYZ
    dof rx
    limits (-90.0 20.0)
  end
  begin
     id 11 
     name lowerback
     direction 0.0100202 0.997226 -0.0737589   
     length 2.16892   
     axis 0 0 0   XYZ
    dof rx ry rz
    limits (-20.0 45.0)
           (-30.0 30.0)
           (-30.0 30.0)
  end
  begin
     id 12 
     name upperback
     direction 0.00432398 0.999988 -0.00215019   
     length 2.17326   
     axis 0 0 0   XYZ
    dof rx ry rz
    limits (-20.0 45.0)
           (-30.0 30.0)
           (-30.0 30.0)
  end
  begin
     id 13 
     name thorax
     direction -0.00195047 0.999485 0.0320434   
     length 2.18139   
     axis 0 0 0   XYZ
    dof rx ry rz
    limits (-20.0 45.0)
           (-30.0 30.0)
           (-30.0 30.0)
  end
  begin
     id 14 
     name lowerneck
     direction 0.00782762 0.986241 0.165128   
     length 1.88415   
     axis 0 0 0   XYZ
    dof rx ry rz
    limits (-20.0 45.0)
           (-30.0 30.0)
           (-30.0 30.0)
  end
  begin
     id 15 
     name upperneck
     direction 0.00988667 0.981098 -0.193258   
     length 1.9242   
     axis 0 0 0   XYZ
    dof rx ry rz
    limits (-20.0 45.0)
           (-30.0 30.0)
           (-30.0 30.0)
  end
  begin
     id 16
     name head
     direction 0.00252199 0.996513 -0.0833958  
     length 1.93887  
     axis 0 0 0   XYZ
    dof rx ry rz
    limits (-20.0 45.0)
           (-30.0 30.0)
           (-30.0 30.0)
  end
  begin
     id 17 
     name lclavicle
     direction 0.929492 0.368193 -0.0218667  
     length 3.5955  
     axis 0 0 0   XYZ
    dof ry rz
    limits (-20.0 10.0)
           (0.0 20.0)
  end
  begin
     id 18 
     name lhumerus
     direction 1 -4.48972e-011 1.41911e-027   
     length 5.2795   
     axis 180 -30 -90   XYZ
    dof rx ry rz
    limits (-60.0 90.0)
           (-90.0 90.0)
           (-90.0 90.0)
  end
  begin
     id 19
     name lradius
     direction 1 -4.48963e-011 7.05772e-027   
     length 3.53504   
     axis 180 -30 -90   XYZ
    dof rx
    limits (-10.0 170.0)
  end
  begin
     id 20
     name lwrist
     direction 1 -4.48957e-011 9.54866e-027   
     length 1.76752   
     axis -7.69462e-015 90 90   XYZ
    dof ry
    limits (-180.0 0.0)
 end
  begin
     id 21 
     name lhand
     direction 1 -4.48979e-011 1.90973e-026   
     length 0.667948   
     axis -1.21857e-014 90 90   XYZ
    dof rx rz
    limits (-90.0 90.0)
           (-45.0 45.0)
  end
  begin
     id 22 
     name lfingers
     direction 1 -4.48987e-011 3.81946e-026   
     length 0.538517   
     axis -2.43714e-014 90 90   XYZ
    dof rx
    limits (0.0 90.0)
  end
  begin
     id 23
     name lthumb
     direction 0.707107 -6.34962e-011 0.707107   
     length 0.773206   
     axis -90 45 2.85299e-015   XYZ
    dof rx rz
    limits (-45.0 45.0)
           (-45.0 45.0)
  end
  begin
     id 24 
     name rclavicle
     direction -0.898763 0.414256 -0.143584   
     length 3.5176  
     axis 0 0 0   XYZ 
    dof ry rz
    limits (-10.0 20.0)
           (-20.0 0.0)
  end
  begin
     id 25 
     name rhumerus
     direction -1 -4.48971e-011 1.129e-027  
     length 5.25035   
     axis 180 30 90   XYZ
    dof rx ry rz
    limits (-90.0 60.0)
           (-90.0 90.0)
           (-90.0 90.0)
  end
  begin
     id 26 
     name rradius
     direction -1 -4.48955e-011 6.34664e-027   
     length 3.58884   
     axis 180 30 90   XYZ
    dof rx
    limits (-10.0 170.0)
  end
  begin
     id 27 
     name rwrist
     direction -1 -4.48966e-011 9.54866e-027   
     length 1.79442   
     axis -7.69462e-015 -90 -90   XYZ
    dof ry
    limits (-180.0 0.0)
  end
  begin
     id 28
     name rhand
     direction -1 -4.48973e-011 1.90973e-026   
     length 0.779235   
     axis -1.21857e-014 -90 -90   XYZ
    dof rx rz
    limits (-90.0 90.0)
           (-45.0 45.0)
  end
  begin
     id 29
     name rfingers
     direction -1 -4.48984e-011 3.81946e-026   
     length 0.62824   
     axis -2.43714e-014 -90 -90   XYZ
    dof rx
    limits (0.0 90.0)
  end
  begin
     id 30
     name rthumb
     direction -0.707107 -6.34968e-011 0.707107   
     length 0.90203   
     axis -90 -45 -2.85299e-015   XYZ
    dof rx rz
    limits (-45.0 45.0)
           (-45.0 45.0)
  end
:hierarchy
  begin
    root lhipjoint rhipjoint lowerback
    lhipjoint lfemur
    lfemur ltibia
    ltibia lfoot
    lfoot ltoes
    rhipjoint rfemur
    rfemur rtibia
    rtibia rfoot
    rfoot rtoes
    lowerback upperback
    upperback thorax
    thorax lowerneck lclavicle rclavicle
    lowerneck upperneck
    upperneck head
    lclavicle lhumerus
    lhumerus lradius
    lradius lwrist
    lwrist lhand lthumb
    lhand lfingers
    rclavicle rhumerus
    rhumerus rradius
    rradius rwrist
    rwrist rhand rthumb
    rhand rfingers
  end

#!OML:ASF I:\Random Stuff\random\construction\7_22_03\Session 2\subj1.ASF
:FULLY-SPECIFIED
:DEGREES
93
root 11.0223 17.5277 -6.50882 -3.39862 67.7905 -10.5209
lowerback 10.8677 3.35297 2.41037
upperback 2.84609 4.83373 1.45201
thorax -3.03498 2.41888 -0.483262
lowerneck -14.8998 -9.64591 -8.56026
upperneck 34.9573 -14.8997 11.1185
head 16.7768 -5.56501 3.58099
rclavicle -2.11706e-014 1.59028e-015
rhumerus -27.0902 3.0252 -80.1738
rradius 39.4496
rwrist -5.70372
rhand -21.5927 18.3063
rfingers 7.12502
rthumb 4.8021 -11.6193
lclavicle -2.11706e-014 1.59028e-015
lhumerus -32.1903 2.27424 85.6527
lradius 38.554
lwrist 30.9491
lhand -19.8208 56.4221
lfingers 7.12502
lthumb 6.51278 86.3019
rfemur -12.2538 11.0691 19.3298
rtibia 16.1436
rfoot -11.069 -7.11273
rtoes -21.5242
lfemur -27.9346 -24.1333 -2.45662
ltibia 32.4303
lfoot -6.17923 -26.5037
ltoes -6.87534
94
root 11.1044 17.5099 -6.63937 -2.59798 65.8509 -10.0298
lowerback 10.7973 3.49517 2.10701
upperback 2.88101 4.97776 1.33337
thorax -2.97182 2.49131 -0.449675
lowerneck -14.371 -9.84118 -8.68095
upperneck 35.1358 -15.2935 11.355
head 16.8492 -5.73119 3.65172
rclavicle -2.44505e-014 2.52457e-014
rhumerus -27.0061 3.58012 -80.5665
rradius 40.3034
rwrist -5.78697
rhand -21.4951 18.4871
rfingers 7.12502
rthumb 4.89626 -11.4363
lclavicle -2.44505e-014 2.52457e-014
lhumerus -32.6263 3.26098 84.9621
lradius 36.1685
lwrist 30.7977
lhand -20.4115 56.5462
lfingers 7.12502
lthumb 5.94256 86.4429
rfemur -12.8679 11.5282 18.7837
rtibia 16.074
rfoot -11.273 -5.87147
rtoes -22.5759
lfemur -26.7231 -24.6976 -2.52799
ltibia 30.8225
lfoot -7.23049 -26.0707
ltoes -6.65613
95
root 11.1911 17.4994 -6.77534 -1.98588 63.8523 -9.69783
lowerback 10.7615 3.60111 1.8007
upperback 2.91909 5.07577 1.22136
thorax -2.92685 2.54068 -0.403885
lowerneck -13.7107 -9.98573 -8.87231
upperneck 35.1021 -15.6266 11.7173
head 16.7944 -5.88409 3.79954
rclavicle 3.23025e-015 1.33186e-014
rhumerus -27.0147 4.32489 -80.9951
rradius 41.3232
rwrist -5.8642
rhand -21.2365 18.7604
rfingers 7.12502
rthumb 5.14601 -11.1571
lclavicle 3.23025e-015 1.33186e-014
lhumerus -33.1044 4.17594 84.3249
lradius 33.6547
lwrist 30.5854
lhand -20.9193 56.8314
lfingers 7.12502
lthumb 5.45222 86.7413
rfemur -13.3591 11.9645 18.2624
rtibia 15.7532
rfoot -11.2904 -4.44674
rtoes -23.3011
lfemur -25.2863 -24.5496 -2.94093
ltibia 29.3866
lfoot -8.88698 -24.7923
ltoes -5.83194
96
root 11.2819 17.4956 -6.91545 -1.51247 61.9136 -9.37184
lowerback 10.7673 3.65591 1.46894
upperback 3.04286 5.10489 1.09964
thorax -2.81849 2.55779 -0.344417
lowerneck -13.2412 -10.1426 -8.9985
upperneck 35.1428 -15.9703 11.984
head 16.8104 -6.03692 3.88691
rclavicle -1.42628e-014 8.34896e-015
rhumerus -26.8865 5.04628 -81.4027
rradius 42.3351
rwrist -5.87924
rhand -20.8474 19.0789
rfingers 7.12502
rthumb 5.52169 -10.8291
lclavicle -1.42628e-014 8.34896e-015
lhumerus -33.6462 4.68885 83.8631
lradius 31.2455
lwrist 30.5609
lhand -19.5861 57.5399
lfingers 7.12502
lthumb 6.73937 87.4126
rfemur -13.5776 12.4107 17.7272
rtibia 15.1993
rfoot -11.1597 -3.09578
rtoes -24.4939
lfemur -23.678 -23.5574 -3.83047
ltibia 28.147
lfoot -9.99317 -23.3806
ltoes 0.0572511
97
root 11.3719 17.5021 -7.06369 -0.85493 60.1045 -8.81763
lowerback 10.7653 3.61361 0.958095
upperback 3.20166 4.98593 0.94314
thorax -2.68314 2.50187 -0.200793
lowerneck -13.0208 -10.2443 -8.93731
upperneck 35.3495 -16.2521 12.1258
head 16.9291 -6.13876 3.89819
rclavicle -4.40681e-014 5.11871e-015
rhumerus -26.6836 5.71334 -81.804
rradius 43.4022
rwrist -5.80291
rhand -20.4936 19.3042
rfingers 7.12502
rthumb 5.86325 -10.5947
lclavicle -4.40681e-014 5.11871e-015
lhumerus -34.2429 5.0331 83.5085
lradius 28.95
lwrist 30.5438
lhand -19.562 57.5296
lfingers 7.12502
lthumb 6.76262 87.4016
rfemur -13.6896 12.7958 17.0082
rtibia 14.454
rfoot -10.9222 -1.76434
rtoes -26.239
lfemur -22.2772 -22.2066 -4.98294
ltibia 27.0293
lfoot -12.1509 -21.2852
ltoes -3.81132
98
root 11.4525 17.5165 -7.21277 0.156673 58.3767 -7.96778
lowerback 10.7438 3.54427 0.0688407
upperback 3.2755 4.79165 0.791456
thorax -2.65518 2.40613 0.164856
lowerneck -12.562 -10.2034 -8.81955
upperneck 35.3354 -16.3543 12.3787
head 16.849 -6.16659 3.98831
rclavicle 2.3382e-014 1.5704e-014
rhumerus -26.8259 6.31607 -82.1251
rradius 44.7367
rwrist -5.684
rhand -20.2572 19.6913
rfingers 7.12502
rthumb 6.09148 -10.2011
lclavicle 2.3382e-014 1.5704e-014
lhumerus -34.7842 5.2471 83.3256
lradius 26.5255
lwrist 30.3106
lhand -19.1175 57.8237
lfingers 7.12502
lthumb 7.19169 87.6815
rfemur -14.0518 13.3096 15.9939
rtibia 13.8054
rfoot -10.4875 -0.603237
rtoes -27.7653
lfemur -21.3182 -21.0793 -6.13621
ltibia 26.0345
lfoot -13.5376 -19.6505
ltoes -8.47558
99
root 11.528 17.536 -7.36402 1.54108 56.7757 -6.72617
lowerback 10.7316 3.47399 -1.1154
upperback 3.29616 4.56414 0.596366
thorax -2.70051 2.29326 0.652056
lowerneck -12.0194 -10.2135 -8.86065
upperneck 35.3189 -16.4967 12.6464
head 16.7756 -6.23559 4.10686
rclavicle 4.5472e-014 -4.27387e-015
rhumerus -27.1283 6.73614 -82.3669
rradius 46.0657
rwrist -5.67688
rhand -20.359 20.1557
rfingers 7.12502
rthumb 5.99321 -9.73952
lclavicle 4.5472e-014 -4.27387e-015
lhumerus -35.2043 4.89792 83.4729
lradius 24.1629
lwrist 29.9237
lhand -19.7889 58.1061
lfingers 7.12502
lthumb 6.54362 87.985
rfemur -14.6962 13.7861 14.6228
rtibia 13.4492
rfoot -10.0027 0.3905
rtoes -28.7291
lfemur -20.738 -20.3704 -7.42167
ltibia 25.2094
lfoot -14.2487 -18.2112
ltoes -12.2728
100
root 11.5956 17.5553 -7.51372 2.94647 55.3987 -5.53698
lowerback 10.7239 3.29662 -2.38761
upperback 3.30359 4.18675 0.402129
thorax -2.75362 2.1068 1.21013
lowerneck -11.8112 -10.259 -8.88627
upperneck 35.5433 -16.6408 12.6913
head 16.8807 -6.30731 4.11952
rclavicle 5.96354e-015 -7.95139e-015
rhumerus -27.3154 7.23723 -82.7102
rradius 47.2123
rwrist -5.98314
rhand -20.8076 20.3193
rfingers 7.12502
rthumb 5.56008 -9.58778
lclavicle 5.96354e-015 -7.95139e-015
lhumerus -35.471 4.393 83.6527
lradius 21.9854
lwrist 28.6799
lhand -18.9444 58.8655
lfingers 7.12502
lthumb 7.35879 88.7175
rfemur -15.5847 13.9979 13.2251
rtibia 13.3244
rfoot -9.56044 1.31475
rtoes -29.3759
lfemur -20.5743 -19.7845 -8.65341
ltibia 24.624
lfoot -14.6752 -16.9558
ltoes -14.7966
101
root 11.6525 17.5705 -7.66371 3.935 54.2427 -4.89822
lowerback 10.7779 3.02616 -3.40633
upperback 3.27793 3.71472 0.32987
thorax -2.84706 1.87452 1.76419
lowerneck -11.7908 -10.2131 -8.81697
upperneck 35.7808 -16.6207 12.6047
head 16.9792 -6.30612 4.08317
rclavicle -4.07509e-014 -1.15295e-014
rhumerus -27.5903 7.79387 -83.0115
rradius 48.3479
rwrist -6.45974
rhand -21.3972 20.1941
rfingers 7.12502
rthumb 4.99086 -9.72717
lclavicle -4.07509e-014 -1.15295e-014
lhumerus -35.5879 4.07574 83.7333
lradius 19.858
lwrist 25.9785
lhand -16.829 58.7881
lfingers 7.12502
lthumb 9.40039 88.5585
rfemur -16.6068 13.9651 12.1777
rtibia 13.2753
rfoot -8.88024 2.16011
rtoes -29.3188
lfemur -20.7413 -19.1151 -9.52646
ltibia 24.2657
lfoot -14.925 -16.0224
ltoes -16.3071
102
root 11.708 17.5912 -7.81217 4.21898 53.1068 -4.99342
lowerback 10.8838 2.771 -4.00864
upperback 3.24975 3.31095 0.468506
thorax -2.95108 1.67657 2.29551
lowerneck -11.7526 -10.0899 -8.79924
upperneck 35.9238 -16.4417 12.4803
head 16.9941 -6.25508 4.06758
rclavicle 8.51792e-014 -2.70347e-014
rhumerus -28.0467 8.36139 -83.1274
rradius 49.4597
rwrist -7.00183
rhand -22.0638 20.0464
rfingers 7.12502
rthumb 4.34718 -9.88894
lclavicle 8.51792e-014 -2.70347e-014
lhumerus -35.6822 3.3271 84.1134
lradius 18.1835
lwrist 22.7897
lhand -14.1757 58.6523
lfingers 7.12502
lthumb 11.9597 88.2907
rfemur -17.4963 13.9797 11.6602
rtibia 13.1685
rfoot -7.88873 2.82005
rtoes -26.9156
lfemur -20.9487 -18.261 -9.9784
ltibia 24.1639
lfoot -14.9605 -15.4421
ltoes -16.8838
103
root 11.7671 17.6185 -7.9624 3.82776 51.8248 -5.75949
lowerback 11.0517 2.53783 -4.00335
upperback 3.23973 3.00203 0.688102
thorax -3.04298 1.52448 2.5577
lowerneck -11.6688 -9.8911 -8.87808
upperneck 36.0434 -16.1386 12.414
head 16.9834 -6.16157 4.12234
rclavicle -6.65929e-014 1.55052e-014
rhumerus -28.6031 8.97277 -83.2673
rradius 50.4659
rwrist -7.58322
rhand -22.6552 20.0491
rfingers 7.12502
rthumb 3.77602 -9.89721
lclavicle -6.65929e-014 1.55052e-014
lhumerus -35.8212 1.63834 84.9232
lradius 17.0567
lwrist 20.5983
lhand -12.4885 57.8217
lfingers 7.12502
lthumb 13.5862 87.3584
rfemur -18.2241 13.7298 11.832
rtibia 13.1152
rfoot -6.92785 3.39028
rtoes -23.619
lfemur -21.0052 -17.3692 -10.0041
ltibia 24.1786
lfoot -14.9176 -14.8625
ltoes -17.176
104
root 11.8193 17.641 -8.1179 3.04526 50.2793 -7.05747
lowerback 11.3126 2.39237 -3.30565
upperback 3.1901 2.87994 0.839311
thorax -3.20446 1.46394 2.32973
lowerneck -11.6162 -9.70138 -8.95812
upperneck 36.2499 -15.8733 12.3975
head 17.0429 -6.07197 4.19645
rclavicle 8.74653e-014 -9.93923e-015
rhumerus -29.245 9.15762 -83.519
rradius 51.3866
rwrist -7.95748
rhand -22.9058 20.3007
rfingers 7.12502
rthumb 3.5341 -9.64979
lclavicle 8.74653e-014 -9.93923e-015
lhumerus -35.8518 -0.281399 85.5011
lradius 16.5934
lwrist 18.2741
lhand -10.4761 57.4605
lfingers 7.12502
lthumb 15.5251 86.8573
rfemur -19.191 13.0485 12.7424
rtibia 13.4368
rfoot -5.91294 3.89358
rtoes -21.8522
lfemur -21.0259 -16.6396 -9.48708
ltibia 24.1502
lfoot -14.7922 -14.0088
ltoes -16.7351
105
root 11.8839 17.6659 -8.2603 2.71919 48.5689 -7.56444
lowerback 11.4992 2.36499 -3.05183
upperback 3.23474 2.86862 0.903063
thorax -3.25096 1.45705 2.24926
lowerneck -11.6356 -9.55929 -9.11525
upperneck 36.4924 -15.6427 12.3323
head 17.1488 -6.00834 4.25337
rclavicle -9.26337e-014 -4.77083e-015
rhumerus -29.8716 9.06035 -83.6426
rradius 52.1371
rwrist -8.19882
rhand -22.7697 20.7401
rfingers 7.12502
rthumb 3.66552 -9.20811
lclavicle -9.26337e-014 -4.77083e-015
lhumerus -35.9145 -2.40555 86.1456
lradius 16.6907
lwrist 16.5663
lhand -9.02164 56.9952
lfingers 7.12502
lthumb 16.9256 86.2777
rfemur -20.2249 11.7616 13.5567
rtibia 14.6566
rfoot -5.32874 4.24172
rtoes -21.9789
lfemur -20.5878 -16.3683 -9.49134
ltibia 23.8942
lfoot -14.665 -12.7168
ltoes -15.9781
106
root 11.9541 17.6979 -8.39657 2.94387 46.5664 -7.3856
lowerback 11.4934 2.46204 -3.20964
upperback 3.3174 2.97511 0.815106
thorax -3.17108 1.50765 2.23287
lowerneck -11.7586 -9.39672 -9.1044
upperneck 36.666 -15.3819 12.1789
head 17.2052 -5.91806 4.23806
rclavicle 1.33186e-014 -1.23246e-014
rhumerus -30.4154 9.01306 -83.7556
rradius 52.7099
rwrist -8.64456
rhand -22.6105 21.2379
rfingers 7.12502
rthumb 3.81928 -8.70766
lclavicle 1.33186e-014 -1.23246e-014
lhumerus -36.0081 -4.64917 86.686
lradius 17.4595
lwrist 15.4729
lhand -8.13713 56.7589
lfingers 7.12502
lthumb 17.7769 85.9664
rfemur -21.713 10.2185 14.1554
rtibia 17.0105
rfoot -5.56656 4.20877
rtoes -23.8909
lfemur -19.891 -16.2767 -9.99525
ltibia 23.319
lfoot -14.5806 -10.7811
ltoes -16.5966
107
root 12.0197 17.7363 -8.52901 3.58938 44.459 -6.76185
lowerback 11.3809 2.61807 -3.70913
upperback 3.36386 3.11941 0.61399
thorax -3.08405 1.57766 2.28845
lowerneck -11.9419 -9.22463 -8.95956
upperneck 36.7646 -15.1472 12.059
head 17.2305 -5.81574 4.2027
rclavicle -1.11518e-013 4.25399e-014
rhumerus -30.9544 9.11431 -83.8458
rradius 53.1124
rwrist -9.32195
rhand -22.6394 21.6459
rfingers 7.12502
rthumb 3.79135 -8.30008
lclavicle -1.11518e-013 4.25399e-014
lhumerus -36.0603 -5.9304 86.5204
lradius 18.7726
lwrist 14.0822
lhand -8.11028 56.7292
lfingers 7.12502
lthumb 17.8027 85.9343
rfemur -23.592 8.3636 14.6485
rtibia 20.1546
rfoot -6.08347 3.92401
rtoes -24.9375
lfemur -19.147 -16.0739 -10.8617
ltibia 22.407
lfoot -14.3856 -8.62738
ltoes -18.0662
